<?xml version="1.0" encoding="UTF-8"?>
<svg id="Layer_1" data-name="Layer 1" xmlns="http://www.w3.org/2000/svg" viewBox="0 0 336 336">
  <defs>
    <style>
      .cls-1 {
        fill: #4cbd97;
      }

      .cls-1, .cls-2, .cls-3, .cls-4 {
        stroke-width: 0px;
      }

      .cls-2 {
        fill: #1c9aaa;
      }

      .cls-3 {
        fill: #ffc53e;
      }

      .cls-4 {
        fill: #ef476f;
      }
    </style>
  </defs>
  <path class="cls-4" d="M18.55,91.16C-13.96,154.36-3.74,233.85,49.21,286.8l.35-.35c-.06-1.14-.11-2.29-.11-3.44,0-29.55,21.36-54.09,49.48-59.06-22.39-27.58-25.81-65.45-10.22-96.16,7.79-15.34,5.17-33.9-7-46.07l-.4-.4c-18.85-18.85-50.57-13.85-62.76,9.85Z"/>
  <path class="cls-1" d="M286.54,53.23c0,29.49-21.28,53.99-49.32,59.03,22.25,27.57,25.62,65.34,10.07,95.97-7.79,15.34-5.17,33.89,7,46.06l.41.41c18.84,18.84,50.56,13.85,62.75-9.85,32.51-63.19,22.29-142.69-30.65-195.64l-.37.37c.07,1.21.12,2.42.12,3.65Z"/>
  <path class="cls-3" d="M49.21,49.21l.78.78c1.19-.07,2.38-.12,3.58-.12,29.27,0,53.64,20.97,58.92,48.71,27.54-22.08,65.18-25.38,95.73-9.87,15.34,7.79,33.9,5.17,46.07-7l.4-.4c18.85-18.85,13.85-50.57-9.85-62.76C181.65-13.96,102.16-3.74,49.21,49.21Z"/>
  <path class="cls-2" d="M282.43,286.55c-29.4,0-53.85-21.15-58.99-49.07-27.55,22.03-65.14,25.31-95.67,9.82-15.34-7.79-33.89-5.17-46.06,7l-.41.41c-18.84,18.84-13.85,50.55,9.85,62.75,63.2,32.52,142.7,22.3,195.65-30.65l-.4-.4c-1.32.09-2.64.15-3.97.15Z"/>
</svg>